<?xml version="1.0" standalone="no"?>
<!DOCTYPE svg PUBLIC "-//W3C//DTD SVG 20010904//EN"
 "http://www.w3.org/TR/2001/REC-SVG-20010904/DTD/svg10.dtd">
<svg version="1.0" xmlns="http://www.w3.org/2000/svg"
 width="300.000000pt" height="170.000000pt" viewBox="0 0 300.000000 170.000000"
 preserveAspectRatio="xMidYMid meet">
<metadata>
Created by potrace 1.10, written by Peter Selinger 2001-2011
</metadata>
<g transform="translate(0.000000,170.000000) scale(0.100000,-0.100000)"
fill="#000000" stroke="none">
<path d="M1780 1440 c0 -6 -11 -22 -26 -35 -23 -21 -24 -24 -6 -29 10 -3 23
-18 29 -34 l10 -27 11 26 c6 15 18 29 28 33 16 6 15 8 -4 22 -12 8 -22 21 -22
29 0 8 -4 17 -10 20 -5 3 -10 1 -10 -5z m18 -70 c-11 -17 -13 -17 -24 -2 -16
22 2 48 22 31 10 -8 10 -15 2 -29z"/>
<path d="M1276 1308 c-8 -13 -24 -50 -37 -84 -22 -57 -27 -62 -70 -77 -25 -9
-66 -34 -90 -56 -42 -37 -48 -39 -137 -46 -91 -7 -92 -7 -92 -34 0 -31 38
-115 79 -175 27 -39 29 -48 20 -75 -6 -17 -17 -31 -25 -31 -8 0 -14 -4 -14
-10 0 -5 10 -10 21 -10 19 0 20 -2 8 -17 -13 -15 -12 -16 9 -11 25 7 28 2 8
-17 -20 -20 -20 -234 0 -242 18 -7 19 -72 1 -79 -17 -6 -24 -214 -7 -214 13 0
13 -87 0 -95 -5 -3 -10 -13 -10 -21 0 -12 81 -14 574 -14 565 0 574 0 600 21
30 23 36 81 12 114 -12 17 -12 22 5 44 25 32 24 82 -2 110 -16 17 -18 25 -9
36 7 8 15 44 17 79 5 57 2 70 -27 127 -20 40 -37 94 -45 148 -26 158 -106 273
-235 335 -59 28 -74 31 -165 31 -109 0 -131 10 -99 46 17 18 16 19 -18 19 -64
0 -91 17 -127 80 -34 59 -104 140 -121 140 -5 0 -16 -10 -24 -22z m19 -62 c-7
-45 -28 -86 -39 -75 -4 3 4 34 16 67 12 34 24 60 26 58 2 -2 0 -25 -3 -50z
m66 7 c19 -27 43 -61 53 -76 l17 -28 -28 7 c-15 4 -34 14 -42 21 -11 12 -16
12 -23 1 -7 -9 -8 -1 -4 22 l5 35 -15 -29 c-18 -32 -11 -44 32 -52 16 -3 53
-16 83 -30 29 -13 67 -24 85 -24 21 0 27 -3 18 -9 -12 -7 -11 -14 2 -40 16
-29 16 -32 -1 -38 -29 -10 -104 -74 -98 -83 3 -5 13 -6 22 -3 11 4 14 2 9 -5
-4 -7 8 -6 35 3 23 9 44 13 47 10 11 -11 -33 -99 -67 -135 -28 -30 -48 -40
-94 -50 -44 -9 -61 -17 -68 -34 -10 -22 -50 -35 -189 -62 l-35 -6 22 24 c18
19 20 27 11 36 -18 18 -42 14 -83 -13 -35 -24 -39 -25 -61 -10 -14 9 -22 20
-19 25 4 6 -1 10 -10 10 -12 0 -15 5 -10 18 15 37 23 80 28 155 l5 77 -41 -2
-42 -1 38 -4 c44 -5 47 -15 10 -31 -24 -10 -24 -11 -5 -8 18 4 22 1 18 -11 -3
-8 -6 -33 -6 -56 l0 -42 -31 49 c-34 54 -72 136 -66 143 2 2 33 -3 68 -12 83
-19 86 -19 92 7 l6 22 28 -25 c39 -37 78 -60 87 -52 3 4 -15 28 -41 55 l-47
48 21 22 22 21 28 -34 c42 -50 62 -69 73 -69 17 0 11 23 -20 75 -35 59 -35 61
-11 68 15 3 24 -6 42 -45 42 -90 62 -87 34 6 -16 53 -13 66 15 66 26 0 50 49
50 100 0 22 4 40 8 40 4 0 24 -21 43 -47z m394 -229 c33 -8 64 -19 70 -25 12
-12 -5 -12 -25 1 -16 10 -60 -23 -60 -47 0 -18 3 -17 61 12 l50 26 27 -20 c92
-66 156 -175 170 -292 7 -50 22 -98 46 -149 20 -42 36 -90 36 -109 0 -41 -16
-31 -23 14 -3 25 -4 24 -6 -10 -2 -60 -71 -154 -71 -96 0 10 -11 35 -26 56
-22 32 -24 42 -15 68 8 21 8 42 1 68 -8 27 -8 45 0 59 6 11 7 20 1 20 -12 0
-21 -25 -21 -61 0 -22 -7 -32 -25 -41 -28 -13 -47 -2 -77 47 -12 20 -18 24
-18 13 0 -10 14 -33 31 -53 l31 -35 -58 0 c-33 0 -86 5 -119 11 -33 6 -85 14
-115 17 -44 6 -55 11 -54 25 1 9 -3 14 -8 11 -5 -3 -7 -12 -4 -20 3 -8 -1 -14
-9 -14 -9 0 -15 10 -16 28 l-1 27 -8 -25 c-7 -23 -8 -23 -15 -6 -12 27 27 56
74 56 34 0 132 -20 176 -36 14 -5 17 -4 10 4 -13 13 -111 42 -146 42 -33 0
-39 14 -39 90 0 49 4 64 27 91 34 40 78 59 140 60 45 1 46 1 18 10 -71 21
-157 -20 -187 -89 -16 -36 -19 -57 -14 -103 l7 -57 -41 -7 c-51 -9 -56 -4 -35
29 22 33 9 34 -17 1 -26 -33 -75 -45 -195 -45 -100 0 -101 0 -97 23 4 20 4 20
-8 -3 -17 -35 -16 -34 -32 -21 -8 6 -12 22 -9 34 4 20 3 20 -7 4 -6 -9 -8 -22
-5 -27 3 -6 -1 -10 -9 -10 -19 0 -22 45 -3 57 18 11 176 45 219 46 33 1 35 3
18 12 -30 16 -6 41 46 50 39 6 42 4 78 -40 21 -25 42 -43 47 -40 15 10 10 58
-9 90 -19 30 -19 30 9 65 35 43 59 110 59 161 0 21 5 41 10 44 6 4 8 11 5 16
-10 15 95 11 160 -7z m-741 -9 c-5 -12 -15 -14 -43 -9 -65 12 -70 23 -9 24 47
0 56 -3 52 -15z m546 -15 c0 -5 -17 -18 -37 -29 -21 -11 -34 -20 -30 -21 4 0
21 7 37 15 26 13 30 14 30 1 0 -17 -25 -26 -77 -31 l-36 -2 24 19 c24 19 82
58 87 58 1 0 2 -4 2 -10z m-437 -296 c13 -5 12 -9 -4 -25 -11 -11 -17 -23 -15
-28 3 -5 -3 -8 -14 -7 -29 1 -26 16 7 37 15 10 24 19 19 19 -5 0 -24 -11 -42
-25 -18 -14 -35 -21 -39 -15 -3 5 11 18 32 29 46 24 38 22 56 15z m-112 -72
c7 -35 -3 -42 -21 -14 -11 16 -11 16 -6 -1 4 -12 2 -17 -6 -15 -15 5 -22 33
-14 54 10 26 40 11 47 -24z m79 -13 c0 -4 -16 -7 -35 -6 -25 1 -35 5 -35 17 0
15 5 16 35 6 19 -6 35 -14 35 -17z m-26 -25 c33 -13 14 -24 -39 -24 -62 0 -75
17 -17 23 20 2 38 4 39 5 1 1 8 -1 17 -4z m428 -49 c-7 -41 11 -52 100 -58
197 -15 112 -22 -240 -19 -207 1 -383 5 -389 7 -8 3 -13 22 -13 45 l0 41 203
-6 c123 -4 218 -3 242 3 22 6 54 10 71 11 28 1 31 -2 26 -24z m183 -95 c-4 -6
-137 -10 -366 -10 -238 0 -358 3 -354 10 4 6 137 10 366 10 238 0 358 -3 354
-10z m295 1 c0 -17 -39 -42 -73 -48 -39 -6 -107 4 -107 15 0 5 30 6 66 4 42
-3 70 0 77 7 9 9 -9 12 -76 10 -50 -1 -93 3 -99 9 -7 7 24 10 101 10 61 0 111
-3 111 -7z m-221 -15 c10 -11 8 -16 -6 -20 -23 -7 -53 -56 -53 -86 0 -11 -4
-18 -10 -15 -5 3 -171 7 -367 8 l-358 2 353 2 353 3 -6 33 c-12 60 60 115 94
73z m-109 -51 l0 -35 -314 0 c-173 0 -321 -3 -330 -6 -13 -5 -16 2 -16 35 l0
41 330 0 330 0 0 -35z m179 6 c11 -7 11 -12 -2 -32 -9 -13 -19 -41 -22 -62 -6
-33 -10 -37 -29 -31 -11 4 -23 8 -25 10 -9 8 11 74 30 98 22 28 27 30 48 17z
m134 -23 c8 -18 17 -47 20 -65 6 -31 6 -32 -44 -42 -72 -16 -82 -15 -70 7 5
10 13 42 17 70 6 45 9 51 33 55 14 2 27 5 28 6 2 0 9 -14 16 -31z m167 -4 c0
-24 -19 -54 -35 -54 -19 0 -19 14 0 30 8 7 15 19 15 26 0 8 5 14 10 14 6 0 10
-7 10 -16z m-1020 -129 c0 -36 -4 -65 -9 -65 -5 0 -14 28 -20 63 l-10 62 3
-57 3 -58 -38 0 c-20 0 -44 -3 -52 -6 -21 -8 -28 21 -21 77 l7 49 68 0 69 0 0
-65z m598 47 c43 -30 90 -42 167 -42 60 0 82 5 133 31 46 22 70 29 91 24 63
-14 62 -121 -2 -119 -15 0 -241 1 -502 2 l-475 2 0 60 0 60 281 0 c257 0 283
-2 307 -18z m407 -147 c30 -30 32 -64 4 -99 l-20 -26 -572 2 -572 3 566 5
c459 4 569 8 582 19 20 16 23 71 5 89 -9 9 -152 12 -580 12 -372 0 -568 3
-568 10 0 7 195 10 565 10 l566 0 24 -25z m-17 -17 c15 -15 15 -51 0 -66 -9
-9 -147 -12 -560 -12 l-548 0 0 29 c0 16 -3 36 -6 45 -6 14 47 16 548 16 418
0 557 -3 566 -12z"/>
<path d="M1395 978 c-6 -13 -25 -30 -42 -38 -37 -17 -44 -35 -10 -25 24 7 77
59 77 75 0 18 -15 10 -25 -12z"/>
<path d="M1265 830 c-17 -19 -17 -20 11 -30 28 -11 28 -12 10 -26 -11 -7 -16
-17 -12 -21 4 -5 16 2 26 15 10 12 25 22 33 22 8 0 18 7 21 16 8 21 8 24 -4
24 -5 0 -10 -7 -10 -15 0 -8 -9 -15 -20 -15 -14 0 -19 6 -17 21 3 29 -15 34
-38 9z"/>
<path d="M1157 805 c-10 -14 -32 -29 -50 -34 l-32 -9 33 -1 c33 -1 82 34 82
59 0 17 -14 11 -33 -15z"/>
<path d="M1636 1014 c-20 -53 13 -75 39 -24 20 38 19 40 -9 40 -13 0 -27 -7
-30 -16z"/>
<path d="M1828 929 c-67 -35 -47 -49 39 -27 60 15 60 15 37 33 -25 19 -31 18
-76 -6z"/>
<path d="M1901 851 c-35 -9 -37 -29 -4 -37 15 -3 44 -10 63 -15 51 -13 51 -12
27 26 -22 35 -38 40 -86 26z"/>
<path d="M2020 440 c0 -13 49 -44 57 -36 9 8 -27 46 -44 46 -7 0 -13 -4 -13
-10z"/>
<path d="M1008 533 c17 -2 47 -2 65 0 17 2 3 4 -33 4 -36 0 -50 -2 -32 -4z"/>
<path d="M1103 493 c70 -2 184 -2 255 0 70 1 12 3 -128 3 -140 0 -198 -2 -127
-3z"/>
<path d="M1888 113 c29 -2 74 -2 100 0 26 2 2 3 -53 3 -55 0 -76 -1 -47 -3z"/>
<path d="M1018 73 c17 -2 47 -2 65 0 17 2 3 4 -33 4 -36 0 -50 -2 -32 -4z"/>
<path d="M1198 73 c18 -2 45 -2 60 0 15 2 0 4 -33 4 -33 0 -45 -2 -27 -4z"/>
<path d="M1793 73 c48 -2 126 -2 175 0 48 1 8 3 -88 3 -96 0 -136 -2 -87 -3z"/>
<path d="M1861 1213 c0 -12 -9 -27 -18 -32 -16 -9 -16 -10 -1 -11 9 0 19 -6
21 -12 4 -10 6 -10 6 0 1 6 9 12 18 12 15 0 15 1 1 13 -9 6 -18 21 -21 32 -4
18 -5 18 -6 -2z"/>
<path d="M1018 1188 c-14 -14 -15 -18 -4 -18 8 0 17 -6 19 -12 4 -9 8 -10 14
-2 4 6 13 13 20 15 6 2 2 10 -10 20 -20 14 -23 14 -39 -3z"/>
<path d="M2192 767 c-26 -15 -57 -56 -48 -64 3 -4 6 -2 6 4 0 6 18 23 40 38
l39 27 37 -21 c40 -24 60 -22 22 3 -35 22 -70 27 -96 13z"/>
<path d="M2197 683 c18 -2 50 -2 70 0 21 2 7 4 -32 4 -38 0 -55 -2 -38 -4z"/>
<path d="M758 622 c-16 -9 -28 -20 -28 -25 0 -5 12 1 26 12 36 28 60 26 95 -8
36 -37 39 -27 2 11 -31 32 -56 35 -95 10z"/>
<path d="M760 561 c27 -8 88 -6 97 3 4 3 -23 6 -58 5 -45 0 -57 -3 -39 -8z"/>
</g>
</svg>
